<?xml version="1.0" encoding="UTF-8" standalone="no"?>
<!DOCTYPE svg PUBLIC "-//W3C//DTD SVG 1.1//EN" "http://www.w3.org/Graphics/SVG/1.1/DTD/svg11.dtd">
<svg width="100%" height="100%" viewBox="0 0 548 548" version="1.1" xmlns="http://www.w3.org/2000/svg" xmlns:xlink="http://www.w3.org/1999/xlink" xml:space="preserve" xmlns:serif="http://www.serif.com/" style="fill-rule:evenodd;clip-rule:evenodd;stroke-linejoin:round;stroke-miterlimit:2;">
    <g transform="matrix(1,0,0,1,-8390,-5784)">
        <g id="starFill" transform="matrix(1,0,0,1,91.669,202.209)">
            <rect x="8298.96" y="5582.41" width="547.313" height="547.313" style="fill:white;fill-opacity:0;"/>
            <g transform="matrix(1,0,0,1,-86.2758,-202.209)">
                <circle cx="8658.89" cy="6058.28" r="273.656" style="fill:rgb(0,235,96);"/>
            </g>
            <g transform="matrix(1,0,0,1,-86.2758,-202.209)">
                <path d="M8658.89,5784.62C8809.93,5784.62 8932.55,5907.24 8932.55,6058.28C8932.55,6209.32 8809.93,6331.94 8658.89,6331.94C8507.86,6331.94 8385.23,6209.32 8385.23,6058.28C8385.23,5907.24 8507.86,5784.62 8658.89,5784.62ZM8658.89,5865.18C8552.32,5865.18 8465.79,5951.7 8465.79,6058.28C8465.79,6164.86 8552.32,6251.38 8658.89,6251.38C8765.47,6251.38 8851.99,6164.86 8851.99,6058.28C8851.99,5951.7 8765.47,5865.18 8658.89,5865.18Z" style="fill:rgb(0,235,96);"/>
            </g>
        </g>
    </g>
</svg>
