<?xml version="1.0" encoding="UTF-8" standalone="no"?>
<!DOCTYPE svg PUBLIC "-//W3C//DTD SVG 1.1//EN" "http://www.w3.org/Graphics/SVG/1.1/DTD/svg11.dtd">
<svg width="100%" height="100%" viewBox="0 0 2134 2134" version="1.1" xmlns="http://www.w3.org/2000/svg" xmlns:xlink="http://www.w3.org/1999/xlink" xml:space="preserve" xmlns:serif="http://www.serif.com/" style="fill-rule:evenodd;clip-rule:evenodd;stroke-linejoin:round;stroke-miterlimit:2;">
    <g transform="matrix(1,0,0,1,-6611,-2924)">
        <g transform="matrix(1,0,0,1,109.076,-21.8153)">
            <g id="icon" transform="matrix(4.16667,0,0,4.16667,6502.29,2945.98)">
                <rect x="0" y="0" width="512" height="512" style="fill:none;"/>
                <g id="Fondo">
                    <rect x="0" y="0" width="512" height="512" style="fill:rgb(0,235,96);"/>
                </g>
                <g id="Icono">
                    <g transform="matrix(0,-1,-1,0,245.149,220.098)">
                        <path d="M-25.051,-25.051C-38.886,-25.051 -50.102,-13.835 -50.102,0C-50.102,13.835 -38.886,25.051 -25.051,25.051C-11.216,25.051 0,13.835 0,0C0,-13.835 -11.216,-25.051 -25.051,-25.051" style="fill:white;fill-rule:nonzero;"/>
                    </g>
                    <g transform="matrix(1,0,0,1,376.83,135.162)">
                        <path d="M0,241.676C-4.233,245.909 -9.792,248.026 -15.341,248.026C-20.899,248.026 -26.458,245.909 -30.691,241.666L-66.207,206.161L-73.796,198.571L-80.117,192.25C-84.16,188.217 -86.276,182.973 -86.457,177.672C-86.648,172.314 -84.865,166.898 -81.099,162.608C-80.413,161.959 -79.745,161.282 -79.087,160.596C-73.09,154.341 -68.18,147.009 -64.7,138.915L-64.7,138.905C-64.576,138.572 -64.452,138.228 -64.309,137.895C-64.157,137.532 -64.004,137.18 -63.832,136.836C-63.832,136.827 -63.823,136.817 -63.823,136.808C-60.553,128.503 -58.751,119.455 -58.751,109.988C-58.751,100.52 -60.543,91.481 -63.813,83.177C-63.823,83.177 -63.823,83.168 -63.823,83.158C-64.109,82.452 -64.395,81.756 -64.7,81.06C-64.71,81.041 -64.71,81.032 -64.71,81.022C-68.199,72.947 -73.09,65.624 -79.087,59.37C-79.745,58.683 -80.413,58.016 -81.099,57.358C-87.068,51.59 -94.018,46.832 -101.665,43.362C-103.028,42.742 -104.401,42.16 -105.803,41.636C-113.058,38.852 -120.876,37.202 -129.038,36.897C-129.991,36.85 -130.945,36.831 -131.908,36.831C-132.747,36.831 -133.586,36.84 -134.415,36.878C-142.205,37.136 -149.689,38.613 -156.668,41.131C-158.756,41.874 -160.787,42.713 -162.78,43.648C-169.454,46.756 -175.584,50.846 -180.971,55.718C-182.745,57.32 -184.432,59.007 -186.044,60.781C-190.801,66.015 -194.815,71.946 -197.904,78.391C-199.02,80.717 -200.011,83.101 -200.879,85.551C-203.177,92.025 -204.588,98.918 -204.96,106.088C-205.027,107.375 -205.065,108.681 -205.065,109.988C-205.065,111.294 -205.027,112.59 -204.96,113.887C-204.588,121.047 -203.177,127.95 -200.879,134.424C-200.021,136.865 -199.02,139.248 -197.914,141.565C-194.825,148.02 -190.82,153.941 -186.063,159.175C-186.063,159.175 -186.053,159.175 -186.053,159.194C-184.432,160.968 -182.726,162.665 -180.952,164.257C-175.575,169.129 -169.463,173.21 -162.818,176.308C-160.806,177.252 -158.737,178.101 -156.621,178.854C-156.621,178.864 -156.611,178.864 -156.611,178.864C-149.642,181.371 -142.186,182.84 -134.415,183.097C-133.586,183.135 -132.747,183.145 -131.908,183.145C-130.945,183.145 -129.991,183.126 -129.038,183.078C-123.832,183.707 -119.189,186.186 -115.804,189.838C-112.191,193.709 -109.979,198.895 -109.979,204.616C-109.979,207.286 -110.465,209.841 -111.342,212.205C-114.422,220.453 -122.364,226.326 -131.679,226.326C-163.8,226.326 -192.889,213.302 -213.941,192.25C-234.993,171.198 -248.017,142.118 -248.017,109.988C-248.017,77.857 -234.993,48.777 -213.941,27.725C-192.889,6.673 -163.8,-6.35 -131.679,-6.35C-99.558,-6.35 -70.468,6.673 -49.417,27.725C-28.365,48.777 -15.341,77.857 -15.341,109.988C-15.341,134.272 -22.778,156.811 -35.506,175.46L0,210.975C8.476,219.451 8.476,233.19 0,241.676" style="fill:white;fill-rule:nonzero;"/>
                    </g>
                </g>
                <g id="Detalles">
                </g>
            </g>
        </g>
    </g>
</svg>
