<?xml version="1.0" encoding="UTF-8" standalone="no"?>
<!DOCTYPE svg PUBLIC "-//W3C//DTD SVG 1.1//EN" "http://www.w3.org/Graphics/SVG/1.1/DTD/svg11.dtd">
<svg width="100%" height="100%" viewBox="0 0 2134 2134" version="1.1" xmlns="http://www.w3.org/2000/svg" xmlns:xlink="http://www.w3.org/1999/xlink" xml:space="preserve" xmlns:serif="http://www.serif.com/" style="fill-rule:evenodd;clip-rule:evenodd;stroke-linejoin:round;stroke-miterlimit:2;">
    <g transform="matrix(1,0,0,1,-9019,-2924)">
        <g transform="matrix(1,0,0,1,6.0884,-21.8153)">
            <g id="iconWeb" transform="matrix(4.16667,0,0,4.16667,9013.19,2945.98)">
                <rect x="0" y="0" width="512" height="512" style="fill:none;"/>
                <g id="Fondo">
                </g>
                <g id="Icono">
                    <g transform="matrix(0,-1,-1,0,235.267,187.4)">
                        <path d="M-47.866,-47.866C-74.301,-47.866 -95.731,-26.436 -95.731,-0.001C-95.731,26.435 -74.301,47.866 -47.866,47.866C-21.431,47.866 -0.001,26.435 -0.001,-0.001C-0.001,-26.436 -21.431,-47.866 -47.866,-47.866" style="fill:rgb(0,235,96);fill-rule:nonzero;"/>
                    </g>
                    <g transform="matrix(1,0,0,1,486.874,25.1107)">
                        <path d="M0,461.779C-8.089,469.867 -18.71,473.912 -29.312,473.912C-39.933,473.912 -50.554,469.867 -58.642,461.761L-126.503,393.918L-153.082,367.339C-160.807,359.633 -164.851,349.613 -165.197,339.484C-165.561,329.246 -162.155,318.898 -154.959,310.7C-153.647,309.462 -152.372,308.168 -151.115,306.857C-139.656,294.906 -130.274,280.897 -123.624,265.43L-123.624,265.412C-123.388,264.774 -123.151,264.118 -122.878,263.481C-122.586,262.788 -122.295,262.114 -121.967,261.458C-121.967,261.44 -121.949,261.422 -121.949,261.404C-115.7,245.536 -112.257,228.248 -112.257,210.158C-112.257,192.068 -115.682,174.797 -121.93,158.93C-121.949,158.93 -121.949,158.912 -121.949,158.894C-122.495,157.545 -123.042,156.215 -123.624,154.886C-123.643,154.849 -123.643,154.831 -123.643,154.813C-130.31,139.382 -139.656,125.391 -151.115,113.441C-152.372,112.129 -153.647,110.854 -154.959,109.597C-166.363,98.575 -179.644,89.484 -194.254,82.853C-196.859,81.669 -199.483,80.558 -202.16,79.556C-216.024,74.236 -230.962,71.085 -246.557,70.502C-248.378,70.411 -250.2,70.374 -252.04,70.374C-253.643,70.374 -255.247,70.392 -256.831,70.465C-271.715,70.957 -286.016,73.781 -299.351,78.59C-303.341,80.011 -307.221,81.614 -311.029,83.4C-323.781,89.339 -335.495,97.154 -345.788,106.463C-349.176,109.524 -352.401,112.748 -355.48,116.137C-364.57,126.138 -372.24,137.47 -378.142,149.785C-380.274,154.23 -382.168,158.784 -383.826,163.466C-388.217,175.836 -390.913,189.007 -391.623,202.707C-391.751,205.166 -391.824,207.662 -391.824,210.158C-391.824,212.654 -391.751,215.131 -391.623,217.609C-390.913,231.29 -388.217,244.48 -383.826,256.849C-382.187,261.513 -380.274,266.067 -378.161,270.494C-372.258,282.828 -364.607,294.141 -355.516,304.142C-355.516,304.142 -355.498,304.142 -355.498,304.179C-352.401,307.567 -349.14,310.81 -345.751,313.852C-335.477,323.161 -323.799,330.958 -311.102,336.879C-307.258,338.683 -303.305,340.304 -299.26,341.743C-299.26,341.762 -299.242,341.762 -299.242,341.762C-285.925,346.553 -271.679,349.358 -256.831,349.85C-255.247,349.923 -253.643,349.941 -252.04,349.941C-250.2,349.941 -248.378,349.905 -246.557,349.814C-236.61,351.016 -227.738,355.753 -221.271,362.73C-214.366,370.126 -210.14,380.037 -210.14,390.967C-210.14,396.068 -211.069,400.95 -212.745,405.468C-218.629,421.227 -233.804,432.449 -251.603,432.449C-312.978,432.449 -368.56,407.563 -408.784,367.339C-449.009,327.115 -473.894,271.551 -473.894,210.158C-473.894,148.765 -449.009,93.201 -408.784,52.976C-368.56,12.752 -312.978,-12.133 -251.603,-12.133C-190.228,-12.133 -134.646,12.752 -94.422,52.976C-54.197,93.201 -29.312,148.765 -29.312,210.158C-29.312,256.558 -43.522,299.624 -67.842,335.258L0,403.118C16.195,419.314 16.195,445.565 0,461.779" style="fill:rgb(0,235,96);fill-rule:nonzero;"/>
                    </g>
                </g>
                <g id="Detalles">
                </g>
            </g>
        </g>
    </g>
</svg>
