<?xml version="1.0" encoding="UTF-8" standalone="no"?>
<!DOCTYPE svg PUBLIC "-//W3C//DTD SVG 1.1//EN" "http://www.w3.org/Graphics/SVG/1.1/DTD/svg11.dtd">
<svg width="100%" height="100%" viewBox="0 0 2883 592" version="1.1" xmlns="http://www.w3.org/2000/svg" xmlns:xlink="http://www.w3.org/1999/xlink" xml:space="preserve" xmlns:serif="http://www.serif.com/" style="fill-rule:evenodd;clip-rule:evenodd;stroke-linejoin:round;stroke-miterlimit:2;">
    <g transform="matrix(1,0,0,1,-9019,0)">
        <rect id="logoWhiteAll" x="9019.28" y="0" width="2882.22" height="591.012" style="fill:white;fill-opacity:0;"/>
        <clipPath id="_clip1">
            <rect id="logoWhiteAll1" serif:id="logoWhiteAll" x="9019.28" y="0" width="2882.22" height="591.012"/>
        </clipPath>
        <g clip-path="url(#_clip1)">
            <g id="logoOldWhiteAll" transform="matrix(4.16667,0,0,4.16667,9019.28,-1.13687e-13)">
                <rect x="0" y="0" width="691.734" height="141.843" style="fill:none;"/>
                <clipPath id="_clip2">
                    <rect x="0" y="0" width="691.734" height="141.843"/>
                </clipPath>
                <g clip-path="url(#_clip2)">
                    <g id="Fondo">
                    </g>
                    <g id="Icono">
                        <g transform="matrix(0,-1,-1,0,63.8469,51.2181)">
                            <path d="M-13.748,-13.748C-21.341,-13.748 -27.496,-7.593 -27.496,-0C-27.496,7.593 -21.341,13.748 -13.748,13.748C-6.155,13.748 -0,7.593 -0,-0C-0,-7.593 -6.155,-13.748 -13.748,-13.748" style="fill:white;fill-rule:nonzero;"/>
                        </g>
                        <g transform="matrix(1,0,0,1,136.115,4.6041)">
                            <path d="M0,132.635C-2.323,134.958 -5.374,136.12 -8.419,136.12C-11.47,136.12 -14.52,134.958 -16.844,132.63L-36.335,113.144L-40.5,108.979L-43.969,105.509C-46.188,103.296 -47.349,100.418 -47.449,97.509C-47.554,94.568 -46.575,91.596 -44.508,89.241C-44.131,88.886 -43.765,88.514 -43.404,88.137C-40.113,84.705 -37.418,80.681 -35.508,76.238L-35.508,76.233C-35.44,76.05 -35.372,75.862 -35.294,75.679C-35.21,75.48 -35.126,75.286 -35.032,75.098C-35.032,75.092 -35.027,75.087 -35.027,75.082C-33.232,70.524 -32.243,65.559 -32.243,60.363C-32.243,55.167 -33.227,50.206 -35.022,45.649C-35.027,45.649 -35.027,45.644 -35.027,45.638C-35.184,45.251 -35.341,44.869 -35.508,44.487C-35.513,44.477 -35.513,44.472 -35.513,44.466C-37.429,40.034 -40.113,36.016 -43.404,32.583C-43.765,32.206 -44.131,31.84 -44.508,31.479C-47.784,28.313 -51.598,25.702 -55.795,23.798C-56.543,23.458 -57.297,23.138 -58.066,22.851C-62.048,21.323 -66.338,20.417 -70.818,20.25C-71.341,20.224 -71.864,20.213 -72.393,20.213C-72.853,20.213 -73.313,20.219 -73.769,20.239C-78.044,20.381 -82.151,21.192 -85.982,22.573C-87.127,22.981 -88.242,23.442 -89.336,23.955C-92.998,25.66 -96.363,27.905 -99.319,30.579C-100.293,31.458 -101.219,32.384 -102.103,33.358C-104.714,36.23 -106.917,39.485 -108.612,43.022C-109.225,44.299 -109.769,45.607 -110.245,46.952C-111.506,50.505 -112.28,54.288 -112.484,58.223C-112.521,58.929 -112.542,59.646 -112.542,60.363C-112.542,61.08 -112.521,61.791 -112.484,62.503C-112.28,66.433 -111.506,70.221 -110.245,73.774C-109.774,75.113 -109.225,76.422 -108.618,77.693C-106.922,81.235 -104.725,84.485 -102.113,87.358C-102.113,87.358 -102.108,87.358 -102.108,87.368C-101.219,88.341 -100.282,89.273 -99.309,90.147C-96.358,92.82 -93.004,95.06 -89.357,96.761C-88.252,97.279 -87.117,97.744 -85.955,98.158C-85.955,98.163 -85.95,98.163 -85.95,98.163C-82.125,99.539 -78.033,100.345 -73.769,100.486C-73.313,100.507 -72.853,100.512 -72.393,100.512C-71.864,100.512 -71.341,100.502 -70.818,100.476C-67.961,100.821 -65.412,102.181 -63.555,104.186C-61.572,106.31 -60.358,109.156 -60.358,112.296C-60.358,113.761 -60.624,115.163 -61.106,116.461C-62.796,120.987 -67.155,124.211 -72.267,124.211C-89.895,124.211 -105.86,117.063 -117.414,105.509C-128.967,93.956 -136.115,77.997 -136.115,60.363C-136.115,42.729 -128.967,26.77 -117.414,15.216C-105.86,3.663 -89.895,-3.485 -72.267,-3.485C-54.638,-3.485 -38.674,3.663 -27.12,15.216C-15.567,26.77 -8.419,42.729 -8.419,60.363C-8.419,73.69 -12.501,86.06 -19.486,96.295L0,115.786C4.652,120.438 4.652,127.978 0,132.635" style="fill:white;fill-rule:nonzero;"/>
                        </g>
                        <g transform="matrix(1,0,0,1,226.34,79.3194)">
                            <path d="M0,-28.51C-3.341,-31.99 -7.41,-33.732 -12.208,-33.732C-17.006,-33.732 -21.077,-32.014 -24.416,-28.58C-27.758,-25.145 -29.427,-20.416 -29.427,-14.396C-29.427,-8.373 -27.758,-3.599 -24.416,-0.071C-21.077,3.458 -17.006,5.222 -12.208,5.222C-7.41,5.222 -3.341,3.482 0,-0C3.339,-3.48 5.011,-8.232 5.011,-14.255C5.011,-20.275 3.339,-25.028 0,-28.51M-49.397,-35.708C-46.342,-41.823 -42.178,-46.527 -36.907,-49.821C-31.638,-53.114 -25.757,-54.761 -19.265,-54.761C-13.714,-54.761 -8.845,-53.632 -4.657,-51.374C-0.472,-49.116 2.752,-46.152 5.011,-42.483L5.011,-53.632L29.145,-53.632L29.145,25.122L5.011,25.122L5.011,13.972C2.657,17.642 -0.613,20.606 -4.798,22.864C-8.986,25.122 -13.855,26.251 -19.406,26.251C-25.806,26.251 -31.638,24.582 -36.907,21.241C-42.178,17.902 -46.342,13.15 -49.397,6.986C-52.457,0.824 -53.985,-6.303 -53.985,-14.396C-53.985,-22.488 -52.457,-29.591 -49.397,-35.708" style="fill:white;fill-rule:nonzero;"/>
                        </g>
                        <g transform="matrix(1,0,0,1,307.704,100.701)">
                            <path d="M0,-72.121C4.234,-74.613 8.938,-75.861 14.114,-75.861L14.114,-50.315L7.48,-50.315C1.458,-50.315 -3.059,-49.021 -6.069,-46.434C-9.081,-43.845 -10.585,-39.306 -10.585,-32.814L-10.585,3.74L-34.72,3.74L-34.72,-75.014L-10.585,-75.014L-10.585,-61.888C-7.763,-66.215 -4.234,-69.627 0,-72.121" style="fill:white;fill-rule:nonzero;"/>
                        </g>
                        <g transform="matrix(1,0,0,1,403.464,95.4796)">
                            <path d="M0,-61.677C5.504,-55.701 8.256,-47.493 8.256,-37.049L8.256,8.962L-15.737,8.962L-15.737,-33.803C-15.737,-39.071 -17.102,-43.164 -19.83,-46.081C-22.56,-48.997 -26.23,-50.457 -30.839,-50.457C-35.449,-50.457 -39.119,-48.997 -41.847,-46.081C-44.577,-43.164 -45.94,-39.071 -45.94,-33.803L-45.94,8.962L-70.075,8.962L-70.075,-69.793L-45.94,-69.793L-45.94,-59.349C-43.495,-62.828 -40.202,-65.581 -36.061,-67.605C-31.921,-69.627 -27.264,-70.639 -22.088,-70.639C-12.868,-70.639 -5.504,-67.651 0,-61.677" style="fill:white;fill-rule:nonzero;"/>
                        </g>
                        <g transform="matrix(1,0,0,1,478.055,72.686)">
                            <path d="M0,-15.243C0,-19.382 -1.412,-22.675 -4.234,-25.123C-7.057,-27.568 -10.585,-28.792 -14.819,-28.792C-18.866,-28.792 -22.278,-27.614 -25.052,-25.264C-27.829,-22.911 -29.546,-19.57 -30.203,-15.243L0,-15.243ZM24.275,-1.835L-30.345,-1.835C-29.97,3.058 -28.393,6.799 -25.617,9.385C-22.842,11.974 -19.431,13.266 -15.384,13.266C-9.364,13.266 -5.176,10.726 -2.823,5.645L22.864,5.645C21.545,10.821 19.171,15.479 15.736,19.618C12.301,23.759 7.996,27.006 2.822,29.356C-2.353,31.709 -8.14,32.885 -14.537,32.885C-22.254,32.885 -29.123,31.24 -35.143,27.945C-41.165,24.652 -45.87,19.948 -49.257,13.831C-52.644,7.716 -54.338,0.564 -54.338,-7.622C-54.338,-15.808 -52.669,-22.957 -49.328,-29.074C-45.989,-35.19 -41.307,-39.894 -35.285,-43.188C-29.264,-46.48 -22.348,-48.128 -14.537,-48.128C-6.916,-48.128 -0.142,-46.527 5.786,-43.329C11.714,-40.13 16.347,-35.567 19.688,-29.639C23.027,-23.711 24.699,-16.796 24.699,-8.892C24.699,-6.634 24.558,-4.281 24.275,-1.835" style="fill:white;fill-rule:nonzero;"/>
                        </g>
                        <g transform="matrix(1,0,0,1,569.016,54.8311)">
                            <path d="M0,-4.092C-3.341,-7.526 -7.459,-9.244 -12.35,-9.244C-17.148,-9.244 -21.219,-7.502 -24.557,-4.022C-27.899,-0.539 -29.569,4.213 -29.569,10.233C-29.569,16.256 -27.899,21.008 -24.557,24.488C-21.219,27.97 -17.148,29.71 -12.35,29.71C-7.55,29.71 -3.458,27.946 -0.07,24.417C3.316,20.889 5.01,16.115 5.01,10.092C5.01,4.072 3.339,-0.657 0,-4.092M-19.689,-26.886C-15.454,-29.144 -10.61,-30.273 -5.152,-30.273C1.34,-30.273 7.22,-28.626 12.491,-25.333C17.759,-22.039 21.923,-17.335 24.981,-11.22C28.038,-5.102 29.569,2.001 29.569,10.092C29.569,18.185 28.038,25.313 24.981,31.474C21.923,37.638 17.759,42.391 12.491,45.729C7.22,49.07 1.34,50.739 -5.152,50.739C-10.705,50.739 -15.55,49.632 -19.689,47.423C-23.83,45.213 -27.076,42.271 -29.427,38.602L-29.427,49.61L-53.562,49.61L-53.562,-54.831L-29.427,-54.831L-29.427,-17.994C-27.169,-21.664 -23.923,-24.628 -19.689,-26.886" style="fill:white;fill-rule:nonzero;"/>
                        </g>
                        <g transform="matrix(1,0,0,1,691.734,141.843)">
                            <path d="M0,-116.156L-49.398,0L-75.367,0L-57.302,-40.083L-89.34,-116.156L-62.383,-116.156L-44.176,-66.899L-26.111,-116.156L0,-116.156Z" style="fill:white;fill-rule:nonzero;"/>
                        </g>
                    </g>
                    <g id="Detalles">
                    </g>
                </g>
            </g>
        </g>
    </g>
</svg>
