<?xml version="1.0" encoding="UTF-8" standalone="no"?>
<!DOCTYPE svg PUBLIC "-//W3C//DTD SVG 1.1//EN" "http://www.w3.org/Graphics/SVG/1.1/DTD/svg11.dtd">
<svg width="100%" height="100%" viewBox="0 0 2723 592" version="1.1" xmlns="http://www.w3.org/2000/svg" xmlns:xlink="http://www.w3.org/1999/xlink" xml:space="preserve" xmlns:serif="http://www.serif.com/" style="fill-rule:evenodd;clip-rule:evenodd;stroke-linejoin:round;stroke-miterlimit:2;">
    <g transform="matrix(1,0,0,1,-5958,0)">
        <g transform="matrix(1,0,0,1,0,101.201)">
            <g id="logo" transform="matrix(3.93554,0,0,4.16667,5958.61,-101.201)">
                <rect x="0" y="0" width="691.734" height="141.843" style="fill:none;"/>
                <clipPath id="_clip1">
                    <rect x="0" y="0" width="691.734" height="141.843"/>
                </clipPath>
                <g clip-path="url(#_clip1)">
                    <g id="Fondo">
                    </g>
                    <g id="Icono" transform="matrix(1.05873,0,0,1,0,0)">
                        <g transform="matrix(0,-1,-1,0,63.8469,51.2181)">
                            <path d="M-13.748,-13.748C-21.341,-13.748 -27.496,-7.593 -27.496,-0C-27.496,7.593 -21.341,13.748 -13.748,13.748C-6.155,13.748 -0,7.593 -0,-0C-0,-7.593 -6.155,-13.748 -13.748,-13.748" style="fill:rgb(0,235,96);fill-rule:nonzero;"/>
                        </g>
                        <g transform="matrix(1,0,0,1,136.115,4.6041)">
                            <path d="M0,132.635C-2.323,134.958 -5.374,136.12 -8.419,136.12C-11.47,136.12 -14.52,134.958 -16.844,132.63L-36.335,113.144L-40.5,108.979L-43.969,105.509C-46.188,103.296 -47.349,100.418 -47.449,97.509C-47.554,94.568 -46.575,91.596 -44.508,89.241C-44.131,88.886 -43.765,88.514 -43.404,88.137C-40.113,84.705 -37.418,80.681 -35.508,76.238L-35.508,76.233C-35.44,76.05 -35.372,75.862 -35.294,75.679C-35.21,75.48 -35.126,75.286 -35.032,75.098C-35.032,75.092 -35.027,75.087 -35.027,75.082C-33.232,70.524 -32.243,65.559 -32.243,60.363C-32.243,55.167 -33.227,50.206 -35.022,45.649C-35.027,45.649 -35.027,45.644 -35.027,45.638C-35.184,45.251 -35.341,44.869 -35.508,44.487C-35.513,44.477 -35.513,44.472 -35.513,44.466C-37.429,40.034 -40.113,36.016 -43.404,32.583C-43.765,32.206 -44.131,31.84 -44.508,31.479C-47.784,28.313 -51.598,25.702 -55.795,23.798C-56.543,23.458 -57.297,23.138 -58.066,22.851C-62.048,21.323 -66.338,20.417 -70.818,20.25C-71.341,20.224 -71.864,20.213 -72.393,20.213C-72.853,20.213 -73.313,20.219 -73.769,20.239C-78.044,20.381 -82.151,21.192 -85.982,22.573C-87.127,22.981 -88.242,23.442 -89.336,23.955C-92.998,25.66 -96.363,27.905 -99.319,30.579C-100.293,31.458 -101.219,32.384 -102.103,33.358C-104.714,36.23 -106.917,39.485 -108.612,43.022C-109.225,44.299 -109.769,45.607 -110.245,46.952C-111.506,50.505 -112.28,54.288 -112.484,58.223C-112.521,58.929 -112.542,59.646 -112.542,60.363C-112.542,61.08 -112.521,61.791 -112.484,62.503C-112.28,66.433 -111.506,70.221 -110.245,73.774C-109.774,75.113 -109.225,76.422 -108.618,77.693C-106.922,81.235 -104.725,84.485 -102.113,87.358C-102.113,87.358 -102.108,87.358 -102.108,87.368C-101.219,88.341 -100.282,89.273 -99.309,90.147C-96.358,92.82 -93.004,95.06 -89.357,96.761C-88.252,97.279 -87.117,97.744 -85.955,98.158C-85.955,98.163 -85.95,98.163 -85.95,98.163C-82.125,99.539 -78.033,100.345 -73.769,100.486C-73.313,100.507 -72.853,100.512 -72.393,100.512C-71.864,100.512 -71.341,100.502 -70.818,100.476C-67.961,100.821 -65.412,102.181 -63.555,104.186C-61.572,106.31 -60.358,109.156 -60.358,112.296C-60.358,113.761 -60.624,115.163 -61.106,116.461C-62.796,120.987 -67.155,124.211 -72.267,124.211C-89.895,124.211 -105.86,117.063 -117.414,105.509C-128.967,93.956 -136.115,77.997 -136.115,60.363C-136.115,42.729 -128.967,26.77 -117.414,15.216C-105.86,3.663 -89.895,-3.485 -72.267,-3.485C-54.638,-3.485 -38.674,3.663 -27.12,15.216C-15.567,26.77 -8.419,42.729 -8.419,60.363C-8.419,73.69 -12.501,86.06 -19.486,96.295L0,115.786C4.652,120.438 4.652,127.978 0,132.635" style="fill:rgb(0,235,96);fill-rule:nonzero;"/>
                        </g>
                    </g>
                    <g id="Detalles">
                    </g>
                    <g transform="matrix(0.250289,0,0,0.236405,584.36,-2464.92)">
                        <g>
                            <path d="M-1244.92,10576.7L-1162.12,10576.7L-1162.12,10876.7L-1245.23,10876.7L-1249.12,10845.5C-1256.92,10857.1 -1266.92,10866.5 -1279.12,10873.7C-1291.33,10880.9 -1305.62,10884.5 -1322.03,10884.5C-1344.42,10884.5 -1365.33,10880.3 -1384.73,10871.9C-1404.12,10863.5 -1421.23,10851.9 -1436.03,10837.1C-1450.83,10822.3 -1462.38,10805.1 -1470.67,10785.6C-1478.98,10766.1 -1483.12,10745.2 -1483.12,10722.8C-1483.12,10701.4 -1479.23,10681.4 -1471.42,10662.8C-1463.62,10644.2 -1452.62,10627.8 -1438.42,10613.6C-1424.23,10599.4 -1407.88,10588.3 -1389.38,10580.3C-1370.88,10572.3 -1350.92,10568.3 -1329.53,10568.3C-1311.12,10568.3 -1294.58,10572.2 -1279.88,10580C-1265.17,10587.8 -1252.33,10597.7 -1241.33,10609.7L-1244.92,10576.7ZM-1324.12,10805C-1310.53,10805 -1298.23,10801.5 -1287.23,10794.5C-1276.23,10787.5 -1267.53,10778 -1261.12,10766.1C-1254.73,10754.2 -1251.53,10741.1 -1251.53,10726.7C-1251.53,10712.1 -1254.73,10698.9 -1261.12,10687.1C-1267.53,10675.3 -1276.23,10665.9 -1287.23,10658.9C-1298.23,10651.9 -1310.53,10648.4 -1324.12,10648.4C-1337.92,10648.4 -1350.42,10651.9 -1361.62,10658.9C-1372.83,10665.9 -1381.73,10675.3 -1388.33,10687.2C-1394.92,10699.1 -1398.23,10712.3 -1398.23,10726.7C-1398.23,10741.1 -1394.88,10754.2 -1388.17,10766.1C-1381.48,10778 -1372.53,10787.5 -1361.33,10794.5C-1350.12,10801.5 -1337.73,10805 -1324.12,10805Z" style="fill-rule:nonzero;"/>
                            <path d="M-1101.83,10876.7L-1102.12,10576.7L-1019.33,10576.7L-1019.02,10598.9C-1009.02,10589.3 -997.275,10581.8 -983.775,10576.4C-970.275,10571 -956.025,10568.3 -941.025,10568.3C-930.025,10568.3 -919.025,10569.9 -908.025,10573.1L-940.725,10656.8C-947.925,10653.8 -955.225,10652.3 -962.625,10652.3C-973.025,10652.3 -982.525,10654.8 -991.125,10659.8C-999.725,10664.8 -1006.52,10671.5 -1011.52,10680C-1016.52,10688.5 -1019.02,10698.1 -1019.02,10708.7L-1019.02,10876.7L-1101.83,10876.7Z" style="fill-rule:nonzero;"/>
                            <path d="M-595.425,10685.9L-595.425,10876.7L-678.225,10876.7L-678.225,10708.7C-678.225,10698.1 -680.775,10688.5 -685.875,10680C-690.975,10671.5 -697.775,10664.8 -706.275,10659.8C-714.775,10654.8 -724.225,10652.3 -734.625,10652.3C-745.025,10652.3 -754.525,10654.8 -763.125,10659.8C-771.725,10664.8 -778.525,10671.5 -783.525,10680C-788.525,10688.5 -791.025,10698.1 -791.025,10708.7L-791.025,10876.7L-873.825,10876.7L-874.125,10576.7L-791.325,10576.7L-791.025,10598.9C-781.025,10589.3 -769.275,10581.8 -755.775,10576.4C-742.275,10571 -728.025,10568.3 -713.025,10568.3C-691.225,10568.3 -671.475,10573.6 -653.775,10584.2C-636.075,10594.8 -621.925,10608.9 -611.325,10626.6C-600.725,10644.3 -595.425,10664.1 -595.425,10685.9Z" style="fill-rule:nonzero;"/>
                            <path d="M-409.425,10884.5C-437.025,10884.5 -462.175,10877.4 -484.875,10863.2C-507.575,10849 -525.675,10829.9 -539.175,10805.9C-552.675,10781.9 -559.425,10755.4 -559.425,10726.4C-559.425,10704.6 -555.525,10684.1 -547.725,10665C-539.925,10645.9 -529.175,10629.1 -515.475,10614.6C-501.775,10600.1 -485.825,10588.8 -467.625,10580.6C-449.425,10572.4 -430.025,10568.3 -409.425,10568.3C-385.625,10568.3 -363.875,10573.4 -344.175,10583.6C-324.475,10593.8 -307.775,10607.7 -294.075,10625.3C-280.375,10642.9 -270.575,10662.8 -264.675,10685C-258.775,10707.2 -257.825,10730.3 -261.825,10754.3L-470.025,10754.3C-467.425,10763.1 -463.375,10771 -457.875,10778.1C-452.375,10785.2 -445.575,10790.9 -437.475,10795.1C-429.375,10799.3 -420.025,10801.5 -409.425,10801.7C-399.025,10801.9 -389.425,10799.5 -380.625,10794.5C-371.825,10789.5 -364.325,10782.8 -358.125,10774.4L-273.525,10793.9C-285.725,10820.5 -303.925,10842.2 -328.125,10859.1C-352.325,10876 -379.425,10884.5 -409.425,10884.5ZM-473.025,10693.1L-345.525,10693.1C-348.125,10683.1 -352.525,10674.1 -358.725,10666.1C-364.925,10658.1 -372.375,10651.8 -381.075,10647.2C-389.775,10642.6 -399.225,10640.3 -409.425,10640.3C-419.425,10640.3 -428.775,10642.6 -437.475,10647.2C-446.175,10651.8 -453.575,10658 -459.675,10665.9C-465.775,10673.8 -470.225,10682.9 -473.025,10693.1Z" style="fill-rule:nonzero;"/>
                            <path d="M-55.725,10568.3C-26.525,10568.3 0.025,10575.4 23.925,10589.6C47.825,10603.8 66.875,10622.8 81.075,10646.7C95.275,10670.6 102.375,10697.1 102.375,10726.1C102.375,10747.9 98.275,10768.4 90.075,10787.6C81.875,10806.8 70.525,10823.6 56.025,10838.1C41.525,10852.6 24.725,10864 5.625,10872.2C-13.475,10880.4 -33.925,10884.5 -55.725,10884.5C-72.925,10884.5 -88.225,10880.7 -101.625,10873.1C-115.025,10865.5 -126.525,10855.9 -136.125,10844.3L-136.125,10876.7L-218.925,10876.7L-218.925,10426.7L-136.125,10426.7L-136.125,10608.5C-126.525,10596.7 -115.025,10587 -101.625,10579.5C-88.225,10572 -72.925,10568.3 -55.725,10568.3ZM-56.925,10804.4C-43.125,10804.4 -30.575,10800.9 -19.275,10793.9C-7.975,10786.9 0.975,10777.4 7.575,10765.5C14.175,10753.6 17.475,10740.5 17.475,10726.1C17.475,10711.7 14.125,10698.6 7.425,10686.8C0.725,10675 -8.275,10665.5 -19.575,10658.4C-30.875,10651.3 -43.325,10647.8 -56.925,10647.8C-70.525,10647.8 -82.775,10651.3 -93.675,10658.4C-104.575,10665.5 -113.175,10675 -119.475,10686.9C-125.775,10698.8 -128.925,10711.9 -128.925,10726.1C-128.925,10740.7 -125.775,10753.9 -119.475,10765.7C-113.175,10777.5 -104.575,10786.9 -93.675,10793.9C-82.775,10800.9 -70.525,10804.4 -56.925,10804.4Z" style="fill-rule:nonzero;"/>
                            <path d="M333.975,10576.7L422.175,10576.7L257.775,11026.7L170.175,11026.7L224.175,10876.7L116.175,10576.7L206.775,10576.7L265.575,10763.6L333.975,10576.7Z" style="fill-rule:nonzero;"/>
                        </g>
                    </g>
                </g>
            </g>
        </g>
    </g>
</svg>
